<?xml version="1.0" encoding="UTF-8" standalone="no"?>
<!-- Created with Inkscape (http://www.inkscape.org/) -->

<svg
   xmlns:osb="http://www.openswatchbook.org/uri/2009/osb"
   xmlns:dc="http://purl.org/dc/elements/1.1/"
   xmlns:cc="http://creativecommons.org/ns#"
   xmlns:rdf="http://www.w3.org/1999/02/22-rdf-syntax-ns#"
   xmlns:svg="http://www.w3.org/2000/svg"
   xmlns="http://www.w3.org/2000/svg"
   xmlns:sodipodi="http://sodipodi.sourceforge.net/DTD/sodipodi-0.dtd"
   xmlns:inkscape="http://www.inkscape.org/namespaces/inkscape"
   width="300"
   height="400"
   viewBox="0 0 300 400"
   id="svg2"
   version="1.1"
   inkscape:version="0.92.3 (2405546, 2018-03-11)"
   sodipodi:docname="Nan2.svg"
   inkscape:export-filename="C:\Users\Fluffy\Documents\Projects\ExtraRiichi\Nan.png"
   inkscape:export-xdpi="180"
   inkscape:export-ydpi="180">
  <defs
     id="defs4">
    <inkscape:path-effect
       effect="skeletal"
       id="path-effect7963"
       is_visible="true"
       pattern="m -90.825902,-314.06958 23.03016,41.38503 13.798268,-41.38503 z"
       copytype="repeated_stretched"
       prop_scale="1"
       scale_y_rel="false"
       spacing="0"
       normal_offset="0"
       tang_offset="0"
       prop_units="false"
       vertical_pattern="false"
       fuse_tolerance="0"
       pattern-nodetypes="cccc" />
    <inkscape:path-effect
       effect="skeletal"
       id="path-effect7830"
       is_visible="true"
       pattern="M -12.828427,33.715729 -17,-11 l 9.0000001,0 z"
       copytype="repeated_stretched"
       prop_scale="-1"
       scale_y_rel="false"
       spacing="5.1"
       normal_offset="0"
       tang_offset="0"
       prop_units="false"
       vertical_pattern="false"
       fuse_tolerance="0"
       pattern-nodetypes="cccc" />
    <linearGradient
       id="linearGradient10055"
       osb:paint="solid">
      <stop
         style="stop-color:#000000;stop-opacity:1;"
         offset="0"
         id="stop10057" />
    </linearGradient>
    <marker
       inkscape:stockid="Arrow1Lstart"
       orient="auto"
       refY="0"
       refX="0"
       id="Arrow1Lstart"
       style="overflow:visible"
       inkscape:isstock="true">
      <path
         id="path4978"
         d="M 0,0 5,-5 -12.5,0 5,5 0,0 Z"
         style="fill:#000000;fill-opacity:1;fill-rule:evenodd;stroke:#ff5c00;stroke-width:1pt;stroke-opacity:1"
         transform="matrix(0.8,0,0,0.8,10,0)"
         inkscape:connector-curvature="0" />
    </marker>
    <clipPath
       clipPathUnits="userSpaceOnUse"
       id="clipPath4243">
      <circle
         style="opacity:1;fill:#000000;fill-opacity:0.29670332;fill-rule:nonzero;stroke:#000000;stroke-width:19.13299942;stroke-linecap:butt;stroke-linejoin:round;stroke-miterlimit:4;stroke-dasharray:none;stroke-dashoffset:0;stroke-opacity:1"
         id="circle4245"
         cx="-264.65997"
         cy="-198.20665"
         r="293.95438" />
    </clipPath>
    <clipPath
       clipPathUnits="userSpaceOnUse"
       id="clipPath7847">
      <ellipse
         style="opacity:1;fill:#822600;fill-opacity:1;fill-rule:nonzero;stroke:none;stroke-width:12;stroke-linecap:round;stroke-linejoin:round;stroke-miterlimit:4;stroke-dasharray:none;stroke-dashoffset:0;stroke-opacity:1"
         id="ellipse7849"
         cx="394"
         cy="552.36218"
         rx="349.49533"
         ry="216" />
    </clipPath>
    <clipPath
       clipPathUnits="userSpaceOnUse"
       id="clipPath4243-1">
      <circle
         style="opacity:1;fill:#000000;fill-opacity:0.29670332;fill-rule:nonzero;stroke:#000000;stroke-width:19.13299942;stroke-linecap:butt;stroke-linejoin:round;stroke-miterlimit:4;stroke-dasharray:none;stroke-dashoffset:0;stroke-opacity:1"
         id="circle4245-4"
         cx="-264.65997"
         cy="-198.20665"
         r="293.95438" />
    </clipPath>
    <clipPath
       clipPathUnits="userSpaceOnUse"
       id="clipPath7876">
      <circle
         style="opacity:1;fill:#000000;fill-opacity:0.29670332;fill-rule:nonzero;stroke:#000000;stroke-width:19.13299942;stroke-linecap:butt;stroke-linejoin:round;stroke-miterlimit:4;stroke-dasharray:none;stroke-dashoffset:0;stroke-opacity:1"
         id="circle7878"
         cx="-264.65997"
         cy="-198.20665"
         r="293.95438" />
    </clipPath>
    <clipPath
       clipPathUnits="userSpaceOnUse"
       id="clipPath14693">
      <rect
         style="opacity:1;fill:#a53c3c;fill-opacity:1;fill-rule:nonzero;stroke:none;stroke-width:8;stroke-linecap:round;stroke-linejoin:round;stroke-miterlimit:4;stroke-dasharray:none;stroke-dashoffset:0;stroke-opacity:1"
         id="rect14695"
         width="131.78395"
         height="168.82127"
         x="-332.59583"
         y="383.49765"
         rx="1.2551664"
         ry="3.7514515"
         transform="matrix(0.99939083,-0.03489951,0.03489951,0.99939083,0,0)" />
    </clipPath>
    <clipPath
       clipPathUnits="userSpaceOnUse"
       id="clipPath14952">
      <ellipse
         style="opacity:1;fill:#a53c3c;fill-opacity:1;fill-rule:nonzero;stroke:none;stroke-width:7;stroke-linecap:round;stroke-linejoin:round;stroke-miterlimit:4;stroke-dasharray:none;stroke-dashoffset:0;stroke-opacity:1"
         id="ellipse14954"
         cx="-271.34384"
         cy="647.25604"
         rx="69.057365"
         ry="116.91089"
         transform="matrix(0.99939083,-0.03489951,0.03489951,0.99939083,0,0)" />
    </clipPath>
  </defs>
  <sodipodi:namedview
     id="base"
     pagecolor="#aeffff"
     bordercolor="#666666"
     borderopacity="1"
     inkscape:pageopacity="0"
     inkscape:pageshadow="2"
     inkscape:zoom="1.4297189"
     inkscape:cx="281.11555"
     inkscape:cy="234.53476"
     inkscape:document-units="px"
     inkscape:current-layer="g4184"
     showgrid="true"
     inkscape:window-width="2493"
     inkscape:window-height="1025"
     inkscape:window-x="67"
     inkscape:window-y="27"
     inkscape:window-maximized="1"
     showguides="true"
     inkscape:guide-bbox="true"
     units="px">
    <inkscape:grid
       type="xygrid"
       id="grid4774"
       visible="true"
       dotted="false"
       color="#3f3fff"
       opacity="0.03921569"
       empcolor="#3f3fff"
       empopacity="0.07843137"
       enabled="false" />
    <sodipodi:guide
       position="85.681178,200.03932"
       orientation="0,1"
       id="guide8231"
       inkscape:label=""
       inkscape:color="rgb(0,0,255)" />
    <sodipodi:guide
       position="150,200"
       orientation="1,0"
       id="guide8233"
       inkscape:label=""
       inkscape:color="rgb(0,0,255)" />
  </sodipodi:namedview>
  <metadata
     id="metadata7">
    <rdf:RDF>
      <cc:Work
         rdf:about="">
        <dc:format>image/svg+xml</dc:format>
        <dc:type
           rdf:resource="http://purl.org/dc/dcmitype/StillImage" />
        <dc:title></dc:title>
      </cc:Work>
    </rdf:RDF>
  </metadata>
  <g
     inkscape:label="Layer 1"
     inkscape:groupmode="layer"
     id="layer1"
     transform="translate(0,-652.36216)">
    <g
       id="g4184"
       transform="matrix(1.0044125,0,0,1.0044125,-10.100723,-17.440744)">
      <g
         id="g4195"
         transform="matrix(0.96971821,0,0,1,4.8296528,0)">
        <path
           style="fill:#19328c;fill-opacity:1;fill-rule:evenodd;stroke:none;stroke-width:1px;stroke-linecap:butt;stroke-linejoin:miter;stroke-opacity:1"
           d="m 180.01019,689.47005 c -6.60859,-0.48504 -30.38318,25.26489 -36.60586,34.32229 -5.69504,6.90501 4.79486,11.13002 8.86231,16.9841 5.13346,8.06071 1.22147,89.90666 -8.33752,135.13699 l 15.46785,-2.31045 c 10.15168,-37.07022 17.66151,-105.92002 25.26199,-112.07982 7.23438,-5.64883 23.67201,-5.05439 21.67531,-13.41661 -4.13317,-18.67217 -20.44655,-58.42532 -26.32408,-58.6365 z"
           id="path4166"
           inkscape:connector-curvature="0"
           sodipodi:nodetypes="cccccccc" />
        <path
           style="fill:#19328c;fill-opacity:1;fill-rule:evenodd;stroke:none;stroke-width:1px;stroke-linecap:butt;stroke-linejoin:miter;stroke-opacity:1"
           d="m 122.01681,796.92731 c -18.91603,0.87973 -28.798248,10.69738 -1.04916,14.50033 32.69916,1.34438 100.914,-5.95887 100.99124,-15.21074 0.50007,-12.38604 -9.68021,-30.36115 -15.72706,-30.24973 -4.80999,0.0666 -14.60707,6.08199 -15.49735,13.35218 -0.7723,8.52441 -50.99279,16.5893 -68.71767,17.60796 z"
           id="path4168"
           inkscape:connector-curvature="0"
           sodipodi:nodetypes="cccccc" />
        <path
           style="fill:#19328c;fill-opacity:1;fill-rule:evenodd;stroke:none;stroke-width:1px;stroke-linecap:butt;stroke-linejoin:miter;stroke-opacity:1"
           d="m 153.67205,848.84527 c 25.63242,-10.5633 45.92829,-20.43381 70.16669,-33.78515 8.50421,-4.39856 16.45949,4.65195 14.71585,10.49483 -1.13333,3.79775 -14.08578,26.76789 -2.69599,27.66397 -10.29756,8.02971 -38.07021,31.79678 -54.00467,67.80402 l -24.83006,-2.09832 c 10.65568,-26.66627 51.36933,-71.18083 48.61096,-74.10112 -4.70145,-5.08631 -42.1547,13.5402 -50.3375,11.1914 z"
           id="path4170"
           inkscape:connector-curvature="0"
           sodipodi:nodetypes="ccscccccc" />
        <path
           style="fill:#19328c;fill-opacity:1;fill-rule:evenodd;stroke:none;stroke-width:1px;stroke-linecap:butt;stroke-linejoin:miter;stroke-opacity:1"
           d="M 58.289846,893.36579 C 98.37429,871.73604 187.21397,852.18031 258.85433,851.06873 c 9.11568,-0.5564 30.91343,52.37414 30.72079,61.51831 -0.59867,26.02805 -45.433,88.49816 -73.24718,126.11726 -5.79302,6.4227 -18.89804,4.8464 -27.69634,-0.6182 l -47.53702,-31.5645 c -4.80435,-4.0497 -3.00434,-12.59097 5.05004,-7.74355 10.64061,6.55005 32.405,14.85845 44.46529,16.43385 11.0746,1.4727 48.13752,-86.15338 50.35477,-100.92899 1.30281,-6.70884 -7.4831,-39.24423 -23.33301,-40.27292 -107.24408,3.99322 -143.146386,35.79646 -157.540505,37.24847 z"
           id="path4172"
           inkscape:connector-curvature="0"
           sodipodi:nodetypes="cccccccccccc" />
        <path
           style="fill:#19328c;fill-opacity:1;fill-rule:evenodd;stroke:none;stroke-width:1px;stroke-linecap:butt;stroke-linejoin:miter;stroke-opacity:1"
           d="m 35.176769,856.0746 c -8.329143,2.47339 -5.543427,12.92357 -4.359061,19.23455 9.767401,43.24858 46.332868,125.35065 53.641585,130.24035 22.498047,12.4821 31.295027,4.1632 30.912857,-5.2458 -1.13661,-9.1203 -30.281081,-84.44338 -48.575803,-124.19996 -6.317716,-12.70167 -22.0543,-22.43785 -31.619578,-20.02914 z"
           id="path4174"
           inkscape:connector-curvature="0"
           sodipodi:nodetypes="cccccc" />
        <path
           style="fill:#19328c;fill-opacity:1;fill-rule:evenodd;stroke:none;stroke-width:1px;stroke-linecap:butt;stroke-linejoin:miter;stroke-opacity:1"
           d="m 69.201953,835.83331 c -13.711354,-6.44835 -9.284101,-18.12879 9.262409,-11.09585 42.105238,15.7158 58.236628,41.97104 71.995068,93.68228 l -15.46785,4.19662 C 121.71411,873.69471 105.90056,855.54714 69.201953,835.83331 Z"
           id="path4176"
           inkscape:connector-curvature="0"
           sodipodi:nodetypes="ccccc" />
        <path
           style="fill:#19328c;fill-opacity:1;fill-rule:evenodd;stroke:none;stroke-width:1px;stroke-linecap:butt;stroke-linejoin:miter;stroke-opacity:1"
           d="m 121.2172,943.33039 c -15.90514,5.90334 -13.03153,-18.01065 -2.259,-21.03137 74.13079,-23.14959 77.60464,-21.1582 89.99832,-16.23043 11.85218,4.7626 16.09417,21.95025 0.35075,21.09865 -31.18654,-1.96893 -55.58683,2.54929 -88.09007,16.16315 z"
           id="path4178"
           inkscape:connector-curvature="0"
           sodipodi:nodetypes="ccccc" />
        <path
           style="fill:#19328c;fill-opacity:1;fill-rule:evenodd;stroke:none;stroke-width:1px;stroke-linecap:butt;stroke-linejoin:miter;stroke-opacity:1"
           d="m 124.2573,959.25452 c -10.22238,2.70755 -7.0172,18.26947 3.27761,15.95048 26.7444,-5.66326 45.57025,-9.03231 73.05055,-12.99668 8.28191,-1.37467 8.02256,-22.57795 0.5386,-25.88353 -10.0892,-3.02726 -11.21854,3.61802 -15.65202,6.11282 -12.14009,6.20765 -37.21982,10.4483 -61.21474,16.81691 z"
           id="path4180"
           inkscape:connector-curvature="0"
           sodipodi:nodetypes="cccccc" />
        <path
           style="fill:#19328c;fill-opacity:1;fill-rule:evenodd;stroke:none;stroke-width:1px;stroke-linecap:butt;stroke-linejoin:miter;stroke-opacity:1"
           d="m 146.80164,925.40788 c 2.23284,25.80046 4.91455,54.74838 1.7486,80.54882 l 17.52265,9.6443 c 3.12723,-29.67464 6.5145,-63.19621 4.2514,-92.87087 z"
           id="path4182"
           inkscape:connector-curvature="0"
           sodipodi:nodetypes="ccccc" />
      </g>
      <path
         style="fill:#ffffff;fill-opacity:1;stroke-width:0.69943821"
         d="m 185.80771,375.81019 c -4.38382,-1.38947 -5.37309,-2.0223 -38.19677,-24.43427 -16.93232,-11.56137 -18.73712,-13.34126 -17.31657,-17.07759 0.8509,-2.23801 3.15052,-2.38074 6.9693,-0.43254 l 2.69463,1.3747 0.41542,-1.54956 c 0.22848,-0.85225 0.41972,-7.60844 0.42498,-15.01375 0.008,-11.36347 -0.15033,-13.46418 -1.01517,-13.46418 -0.56359,0 -5.45317,0.94424 -10.86574,2.09831 -13.7106,2.9234 -15.67963,2.77044 -17.82843,-1.38487 -1.61982,-3.13239 -1.33688,-6.56772 0.74469,-9.04153 1.99583,-2.3719 3.96675,-3.07488 18.12839,-6.46593 5.00347,-1.1981 9.36721,-2.42228 9.69721,-2.7204 0.59842,-0.54062 -0.62878,-18.76857 -1.30943,-19.44922 -0.52985,-0.52986 -7.1594,1.68636 -17.71541,5.92215 -14.61054,5.86276 -17.94889,5.14999 -17.9428,-3.83096 0.003,-3.78487 0.35369,-5.2431 1.89478,-7.86892 2.44111,-4.15931 3.69104,-4.92172 12.48225,-7.6137 4.01633,-1.22986 7.51848,-2.44216 7.78256,-2.69402 0.55041,-0.52493 -6.06649,-20.8541 -8.72634,-26.81007 l -1.773,-3.97011 -6.18142,1.95817 c -13.817883,4.37729 -36.606979,13.62871 -36.606979,14.86091 0,0.33314 0.814321,2.54045 1.8096,4.90513 3.290568,7.81804 16.428443,41.92948 21.764413,56.50955 7.771206,21.23414 11.392366,32.79474 11.392526,36.37079 2.5e-4,5.36131 -3.1401,8.92888 -8.805136,10.00301 -5.880738,1.11503 -19.339605,-4.12564 -22.775165,-8.8683 C 67.34525,326.6248 46.991255,278.93515 35.508808,244.71159 27.74796,221.5803 24.733773,210.07986 24.219739,201.63889 l -0.40813,-6.70191 2.125752,-2.37912 c 1.965381,-2.19964 2.438792,-2.37913 6.275173,-2.37913 5.239197,0 12.670827,3.48586 18.456574,8.65721 4.641307,4.14843 7.259633,8.04912 10.840319,16.14953 1.445408,3.26987 2.704675,6.05582 2.798371,6.19099 0.09369,0.13518 3.364284,-1.06393 7.267976,-2.66467 7.763918,-3.18367 31.559746,-11.22014 33.222606,-11.22014 1.63586,0 1.26107,-0.96346 -2.12924,-5.47357 -8.497519,-11.3042 -20.654046,-21.09967 -39.974102,-32.21029 -5.682317,-3.26779 -7.917694,-5.6771 -7.917694,-8.53372 0,-4.23584 6.661747,-5.43822 14.885126,-2.68662 6.268743,2.09756 17.452997,7.65461 23.933695,11.89178 7.905195,5.16852 20.010025,17.52811 25.149405,25.67868 2.2549,3.57607 4.44318,6.37191 4.86285,6.213 0.41967,-0.15892 3.32341,-0.84057 6.45277,-1.51477 3.12937,-0.67421 6.06885,-1.46012 6.5322,-1.74649 0.94928,-0.58669 3.55466,-18.20847 5.22396,-35.33289 0.6,-6.15505 1.27641,-12.9802 1.50314,-15.16699 l 0.41223,-3.97599 -15.27614,0.37943 c -12.37077,0.30725 -16.25767,0.16911 -20.43694,-0.72634 -18.893661,-4.04816 -14.711972,-11.09333 7.93566,-13.36974 5.48959,-0.55178 14.23591,-1.68163 19.43625,-2.51078 l 9.45517,-1.50753 0.50872,-15.25562 c 0.51493,-15.441703 0.0766,-28.537576 -1.14494,-34.203153 -0.5325,-2.469843 -1.73368,-4.217822 -5.8826,-8.560452 -5.85823,-6.131743 -6.203,-7.302934 -3.38376,-11.494697 5.93607,-8.825972 20.74755,-24.784186 28.19691,-30.37997 5.98229,-4.493756 7.64096,-4.532813 10.58808,-0.249323 6.88777,10.011026 21.6326,48.373846 21.6348,56.288981 7e-4,2.786262 -2.52967,4.553652 -10.48339,7.322162 -8.76433,3.050663 -10.96137,4.500452 -12.6685,8.359693 -1.3559,3.065249 -5.52458,19.318569 -5.52458,21.539879 0,1.50541 0.94697,1.31951 7.11359,-1.39647 4.71133,-2.07503 6.22929,-3.63265 7.86275,-8.06815 2.15076,-5.84017 11.20983,-11.93591 15.38133,-10.34991 4.09484,1.55686 9.95034,11.44066 12.36033,20.86361 1.90744,7.45804 1.79015,9.5264 -0.6383,11.2556 -4.52649,3.22315 -21.96001,7.39558 -38.93223,9.31779 -3.84691,0.4357 -7.08299,0.85366 -7.19128,0.92882 -0.27938,0.19391 -6.41785,34.86126 -6.20966,35.06944 0.58755,0.58756 28.97341,-13.44832 45.77489,-22.63417 6.64963,-3.63554 13.10195,-6.76282 14.33849,-6.94951 4.44651,-0.67131 10.29177,4.44136 10.29177,9.00192 0,1.13556 -1.45687,5.70602 -3.2375,10.1566 -3.49509,8.73578 -4.73083,15.98114 -3.06752,17.98531 0.75369,0.90813 2.75672,0.99396 14.04009,0.60158 11.42655,-0.39735 13.38713,-0.30949 14.87695,0.66668 4.00334,2.62309 12.6938,18.51821 19.58091,35.81411 5.76759,14.48441 7.66194,21.46223 7.21704,26.58399 -1.55526,17.90453 -23.24861,56.87373 -62.87912,112.95393 -7.25079,10.26043 -9.14758,12.49471 -11.7273,13.81391 -3.88802,1.98822 -9.81631,2.03644 -15.83498,0.12879 z m -0.7755,-28.45604 c 8.07293,-8.33122 24.72201,-42.16316 37.45078,-76.10225 6.15299,-16.4059 7.40671,-21.3219 6.94692,-27.23974 -0.77196,-9.93543 -6.9585,-24.79681 -12.84295,-30.85146 -3.65049,-3.75608 -6.71478,-5.16961 -11.2068,-5.16961 -3.69193,0 -3.10017,-0.50858 -10.98691,9.44241 -2.43911,3.07753 -6.5342,8.74298 -9.10019,12.58989 l -4.66544,6.99438 5.46639,0.46611 c 7.52168,0.64136 13.977,3.30915 17.6505,7.29444 3.2988,3.57877 4.2098,5.60909 4.2098,9.38222 0,1.85974 -0.53098,3.33053 -1.68802,4.67568 l -1.68802,1.96245 -16.32252,0.0957 c -8.97738,0.0527 -18.52574,0.43985 -21.21857,0.86044 -2.69284,0.42059 -5.21082,0.77051 -5.59551,0.77758 -0.64356,0.0118 -0.62666,18.85589 0.0175,19.50004 0.13879,0.13879 2.66408,-0.55853 5.61174,-1.5496 5.71,-1.91981 11.50701,-4.9751 11.50701,-6.06471 0,-0.36301 1.25783,-1.49242 2.79519,-2.5098 2.30482,-1.52525 3.34776,-1.78748 5.94484,-1.49475 1.73231,0.19525 3.67309,0.78712 4.31286,1.31526 4.74305,3.91551 5.44072,19.26546 1.05598,23.23359 -0.80931,0.73241 -6.43217,1.9546 -16.54053,3.59526 -8.42294,1.3671 -15.3871,2.55832 -15.47593,2.64714 -0.0888,0.0888 -0.67181,6.61376 -1.29552,14.49986 -0.62372,7.88608 -1.43417,17.0137 -1.80101,20.28357 -0.36685,3.26987 -0.66957,6.28418 -0.67273,6.69846 -0.0106,1.3937 18.24605,7.10342 23.10863,7.22717 1.99241,0.0507 2.98143,-0.45336 5.02252,-2.55976 z m -39.04733,-101.44596 6.22578,-1.92936 4.81826,-8.02688 c 2.65004,-4.41478 7.59599,-11.96121 10.99098,-16.76985 3.395,-4.80864 6.09375,-8.83817 5.99722,-8.95452 -0.88321,-1.06459 -43.70045,6.40354 -43.70045,7.62219 0,0.32099 1.52489,5.07986 3.38864,10.57525 1.86375,5.4954 3.95632,12.11617 4.65016,14.71284 0.69383,2.59666 1.29349,4.71637 1.33257,4.71045 0.0391,-0.006 2.87265,-0.87897 6.29684,-1.94012 z m 23.15061,-52.96893 c 21.99841,-3.52894 19.81633,-2.78599 23.25632,-7.91821 1.63494,-2.43921 2.97261,-4.88864 2.97261,-5.44318 0,-1.54781 -2.6361,-2.1787 -6.53082,-1.56303 -5.89101,0.93124 -34.65929,10.61895 -35.01372,11.79085 -0.8468,2.79985 -1.17249,5.59585 -0.65218,5.59877 0.31909,0.002 7.50459,-1.10755 15.96779,-2.4652 z"
         id="path63"
         inkscape:connector-curvature="0"
         transform="matrix(0.99560688,0,0,0.99560688,10.056349,666.86038)" />
    </g>
  </g>
</svg>
